<svg xmlns="http://www.w3.org/2000/svg" width="1700" height="427" viewBox="0 0 1700 427" fill="none">
<path d="M723.363 250.454C734.91 250.454 745.746 250.454 756.76 250.454C760.313 250.454 763.866 250.454 767.596 250.454C768.129 252.941 768.662 254.895 769.017 257.026C770.971 272.835 780.386 282.782 795.131 287.401C809.875 292.019 824.797 291.841 839.542 286.513C849.845 282.782 856.773 276.033 857.128 264.487C857.484 253.119 850.733 245.836 840.963 242.461C824.442 236.777 807.566 232.869 790.867 227.54C779.143 223.81 767.063 220.08 756.405 214.04C719.455 193.613 725.139 143.7 750.01 123.273C770.794 106.22 794.953 101.602 820.711 103.556C838.831 104.977 856.24 109.24 871.34 120.431C888.216 133.22 894.789 150.627 895.322 171.765C880.222 171.765 865.478 171.765 850.911 171.765C842.384 144.055 824.62 133.93 796.197 140.858C791.223 142.101 786.071 144.766 782.341 148.141C770.794 158.443 773.458 176.028 788.025 181.179C805.789 187.396 824.264 191.482 842.384 196.988C851.444 199.653 860.681 202.139 869.208 206.225C916.639 228.606 907.757 287.045 878.623 308.538C842.029 335.715 772.393 332.163 741.66 300.9C729.048 288.111 722.297 269.993 723.363 250.454Z" fill="white"/>
<path d="M1527.02 273.368C1520.8 302.499 1497.53 321.328 1464.31 324.88C1427.54 328.788 1396.1 310.848 1383.48 279.052C1368.92 242.461 1379.04 199.653 1408.18 178.693C1432.69 161.107 1459.69 158.265 1487.23 169.989C1513.7 181.179 1525.78 203.56 1529.68 230.915C1530.75 238.375 1530.75 245.836 1531.28 254.184C1493.09 254.184 1456.85 254.184 1420.61 254.184C1418.48 269.993 1426.47 284.559 1439.62 290.065C1456.14 296.993 1477.81 292.552 1487.23 279.23C1490.6 274.256 1494.16 273.19 1499.49 273.368C1508.55 273.546 1517.78 273.368 1527.02 273.368ZM1487.41 227.007C1484.92 205.159 1473.19 194.857 1452.05 195.567C1433.58 196.278 1420.79 208.712 1420.26 227.007C1442.64 227.007 1465.02 227.007 1487.41 227.007Z" fill="white"/>
<path d="M1248.65 253.829C1249.19 274.612 1256.65 286.335 1270.86 290.953C1288.62 296.637 1306.39 291.309 1317.76 276.921C1319.18 275.144 1321.84 273.546 1323.97 273.546C1334.28 273.191 1344.58 273.368 1356.31 273.368C1350.09 293.085 1339.96 308.538 1321.84 317.065C1278.5 337.492 1206.91 322.393 1206.2 246.014C1205.66 196.1 1238.17 163.061 1286.67 163.417C1326.11 163.772 1356.66 194.324 1359.15 236.244C1359.5 241.75 1359.15 247.435 1359.15 253.829C1322.02 253.829 1285.6 253.829 1248.65 253.829ZM1315.98 227.007C1312.96 204.093 1300.35 193.791 1278.5 195.567C1260.91 196.988 1248.65 209.955 1249.19 227.007C1271.21 227.007 1293.42 227.007 1315.98 227.007Z" fill="white"/>
<path d="M1699.87 321.15C1686.01 321.15 1673.04 321.15 1658.65 321.15C1658.65 317.775 1658.65 314.755 1658.65 311.558C1658.48 284.026 1658.3 256.494 1657.94 229.139C1657.94 226.83 1657.59 224.343 1657.23 222.034C1655.28 206.58 1647.82 198.054 1635.56 197.166C1616.02 195.567 1604.47 201.962 1600.74 218.304C1598.43 227.718 1597.72 237.487 1597.54 247.257C1597.01 268.572 1597.37 289.888 1597.37 311.203C1597.37 314.4 1597.37 317.597 1597.37 321.15C1583.16 321.15 1570.01 321.15 1556.33 321.15C1556.33 269.816 1556.33 219.014 1556.33 167.502C1569.3 167.502 1581.91 167.502 1595.06 167.502C1595.41 173.719 1595.59 179.581 1595.95 187.396C1599.68 183.489 1601.99 180.647 1604.65 177.982C1622.95 160.752 1660.25 158.265 1680.68 172.831C1694 182.245 1698.98 196.455 1699.33 211.376C1700.4 247.79 1699.87 284.026 1699.87 321.15Z" fill="white"/>
<path d="M1071.72 221.678C1057.51 221.678 1044.36 221.678 1031.04 221.678C1024.82 202.139 1017.18 195.567 1000.13 195.39C984.143 195.212 972.774 203.738 966.912 220.968C961.582 236.599 961.405 252.408 966.379 268.039C971.531 284.559 983.077 293.085 998.888 292.907C1015.41 292.73 1025.53 284.736 1030.86 267.684C1031.22 266.263 1031.75 264.842 1032.28 263.243C1045.61 263.243 1058.75 263.243 1072.08 263.243C1069.06 298.236 1043.48 322.038 1005.64 325.058C969.043 327.9 938.311 309.604 926.232 277.986C912.908 242.639 923.922 198.409 951.457 177.982C978.281 157.91 1024.47 158.621 1050.4 179.581C1063.9 190.061 1071.19 203.916 1071.72 221.678Z" fill="white"/>
<path d="M1196.07 203.738C1154.68 200.541 1139.4 214.573 1139.05 255.605C1138.87 277.098 1139.05 298.769 1139.05 320.972C1125.19 320.972 1111.87 320.972 1098.01 320.972C1098.01 269.993 1098.01 219.369 1098.01 167.857C1110.63 167.857 1123.42 167.857 1137.09 167.857C1137.09 176.206 1137.09 184.554 1137.09 194.324C1142.07 188.285 1145.62 183.133 1149.88 178.87C1160.37 168.39 1173.33 163.417 1188.26 163.417C1193.58 163.417 1196.43 165.015 1196.25 171.055C1195.72 181.89 1196.07 192.725 1196.07 203.738Z" fill="white"/>
<path d="M607.203 1.75339C618.24 1.75339 623.759 1.75339 627.985 3.8692C631.864 5.81111 635.007 8.96189 636.939 12.8459C639.044 17.0777 639.03 22.6943 639.001 33.9274V33.9279C638.544 213.791 638.463 215.092 638.421 215.761C638.379 216.429 638.377 216.465 638.078 393.505C638.059 404.687 638.05 410.278 635.938 414.491C634 418.359 630.86 421.494 626.989 423.426C622.771 425.531 617.273 425.531 606.278 425.531H31.8C20.7876 425.531 15.2814 425.531 11.0604 423.421C7.18616 421.486 4.04497 418.344 2.10911 414.47C0 410.249 0 404.743 0 393.731V33.5534C0 22.541 0 17.0348 2.10911 12.8138C4.04497 8.93954 7.18616 5.79836 11.0604 3.86249C15.2814 1.75339 20.7876 1.75339 31.8 1.75339H607.203ZM26.6911 381.247C27.0682 391.049 36.5202 398.88 46.3293 398.88H588.159H591.393L591.522 398.88C602.523 398.849 611.434 389.938 611.465 378.936L611.465 378.808L612.318 48.1184C612.295 47.5767 612.283 47.3059 612.268 47.0746C611.581 36.7451 603.125 28.647 592.775 28.4071C592.543 28.4017 592.272 28.4017 591.73 28.4017H588.159H46.3293C36.5202 28.4017 26.9534 36.2127 26.6746 46.0179C26.6563 46.662 26.6465 47.3591 26.6465 48.1184V378.808C26.6465 379.69 26.6623 380.498 26.6911 381.247Z" fill="white"/>
<path d="M607.203 1.75339C618.24 1.75339 623.759 1.75339 627.985 3.8692C631.864 5.81111 635.007 8.96189 636.939 12.8459C639.044 17.0777 639.03 22.6943 639.001 33.9274V33.9279C638.544 213.791 638.463 215.092 638.421 215.761C638.379 216.429 638.377 216.465 638.078 393.505C638.059 404.687 638.05 410.278 635.938 414.491C634 418.359 630.86 421.494 626.989 423.426C622.771 425.531 617.273 425.531 606.278 425.531H31.8C20.7876 425.531 15.2814 425.531 11.0604 423.421C7.18616 421.486 4.04497 418.344 2.10911 414.47C0 410.249 0 404.743 0 393.731V33.5534C0 22.541 0 17.0348 2.10911 12.8138C4.04497 8.93954 7.18616 5.79836 11.0604 3.86249C15.2814 1.75339 20.7876 1.75339 31.8 1.75339H607.203ZM26.6911 381.247C27.0682 391.049 36.5202 398.88 46.3293 398.88H588.159H591.393L591.522 398.88C602.523 398.849 611.434 389.938 611.465 378.936L611.465 378.808L612.318 48.1184C612.295 47.5767 612.283 47.3059 612.268 47.0746C611.581 36.7451 603.125 28.647 592.775 28.4071C592.543 28.4017 592.272 28.4017 591.73 28.4017H588.159H46.3293C36.5202 28.4017 26.9534 36.2127 26.6746 46.0179C26.6563 46.662 26.6465 47.3591 26.6465 48.1184V378.808C26.6465 379.69 26.6623 380.498 26.6911 381.247Z" stroke="black"/>
<path d="M313.016 271.735H249.355C253.058 260.787 256.409 250.369 260.289 240.481C260.994 238.715 264.874 237.479 267.342 237.479C277.923 237.126 288.328 237.303 300.496 237.303C297.321 227.944 295.558 219.292 291.678 211.7C280.921 190.687 280.745 170.028 291.149 148.839C295.558 139.834 298.027 129.769 302.083 118.469C327.477 186.273 351.989 252.312 377.207 319.763C361.335 319.763 346.522 319.939 331.709 319.41C329.946 319.41 327.653 315.878 326.771 313.406C322.186 299.81 317.778 286.214 313.016 271.735Z" fill="white"/>
<path d="M170.175 319.586C197.156 248.25 223.608 178.504 250.237 108.227H290.62C283.566 128.71 276.689 148.663 269.811 168.439C253.411 216.114 236.834 263.612 220.434 311.287C218.318 317.467 215.673 320.116 208.619 319.763C196.627 319.057 184.283 319.586 170.175 319.586Z" fill="white"/>
<path d="M441.221 319.233H395.547C395.547 315.702 395.547 312.523 395.547 309.345C395.547 281.093 395.37 252.841 395.723 224.59C395.723 218.586 396.781 212.229 398.545 206.402C408.42 176.032 418.825 145.661 428.524 115.29C430.64 108.581 433.638 105.932 441.044 108.227C441.221 178.327 441.221 248.427 441.221 319.233Z" fill="white"/>
<path d="M396.076 164.378C396.076 145.838 396.076 127.297 396.076 108.227H416.356C410.007 127.121 403.835 145.838 397.663 164.554C397.134 164.554 396.605 164.378 396.076 164.378Z" fill="white"/>
</svg>